HIERARCHY
ROOT Hips
{
	OFFSET 0.000000 0.000000 0.000000 
	CHANNELS 6 Xposition Yposition Zposition Zrotation Yrotation Xrotation
	JOINT LeftUpLeg
	{
		OFFSET 1.363060 -1.794630 0.839290 
		CHANNELS 3 Zrotation Yrotation Xrotation
		JOINT LeftLeg
		{
			OFFSET 2.448110 -6.726130 0.000000 
			CHANNELS 3 Zrotation Yrotation Xrotation
			JOINT LeftFoot
			{
				OFFSET 2.562200 -7.039590 0.000000 
				CHANNELS 3 Zrotation Yrotation Xrotation
				JOINT LeftToeBase
				{
					OFFSET 0.157640 -0.433110 2.322550 
					CHANNELS 3 Zrotation Yrotation Xrotation
					End Site
					{
						OFFSET 0.000000 0.000000 0.000000 
					}
				}
			}
		}
	}
	JOINT RightUpLeg
	{
		OFFSET -1.305520 -1.794630 0.839290 
		CHANNELS 3 Zrotation Yrotation Xrotation
		JOINT RightLeg
		{
			OFFSET -2.542530 -6.985550 0.000000 
			CHANNELS 3 Zrotation Yrotation Xrotation
			JOINT RightFoot
			{
				OFFSET -2.568260 -7.056230 0.000000 
				CHANNELS 3 Zrotation Yrotation Xrotation
				JOINT RightToeBase
				{
					OFFSET -0.164730 -0.452590 2.363150 
					CHANNELS 3 Zrotation Yrotation Xrotation
					End Site
					{
						OFFSET 0.000000 0.000000 0.000000 
					}
				}
			}
		}
	}
	JOINT Spine
	{
		OFFSET 0.028270 2.035590 -0.193380 
		CHANNELS 3 Zrotation Yrotation Xrotation
		JOINT Spine1
		{
			OFFSET 0.056720 2.048850 -0.042750 
			CHANNELS 3 Zrotation Yrotation Xrotation
			JOINT Neck1
			{
				OFFSET -0.054170 1.746240 0.172020 
				CHANNELS 3 Zrotation Yrotation Xrotation
				JOINT Head
				{
					OFFSET 0.104070 1.761360 -0.123970 
					CHANNELS 3 Zrotation Yrotation Xrotation
					End Site
					{
						OFFSET 0.000000 0.000000 0.000000 
					}
				}
			}
			JOINT LeftArm
			{
				OFFSET 3.362410 1.200890 -0.311210 
				CHANNELS 3 Zrotation Yrotation Xrotation
				JOINT LeftForeArm
				{
					OFFSET 4.983000 -0.000000 -0.000000 
					CHANNELS 3 Zrotation Yrotation Xrotation
					JOINT LeftHand
					{
						OFFSET 3.483560 -0.000000 -0.000000 
						CHANNELS 3 Zrotation Yrotation Xrotation
						JOINT LeftHandIndex1
						{
							OFFSET 0.715260 -0.000000 -0.000000 
							CHANNELS 3 Zrotation Yrotation Xrotation
							End Site
							{
								OFFSET 0.000000 0.000000 0.000000 
							}
						}
					}
				}
			}
			JOINT RightArm
			{
				OFFSET -3.136600 1.374050 -0.404650 
				CHANNELS 3 Zrotation Yrotation Xrotation
				JOINT RightForeArm
				{
					OFFSET -5.241900 -0.000000 -0.000000 
					CHANNELS 3 Zrotation Yrotation Xrotation
					JOINT RightHand
					{
						OFFSET -3.444170 -0.000000 -0.000000 
						CHANNELS 3 Zrotation Yrotation Xrotation
						JOINT RightHandIndex1
						{
							OFFSET -0.622530 -0.000000 -0.000000 
							CHANNELS 3 Zrotation Yrotation Xrotation
							End Site
							{
								OFFSET 0.000000 0.000000 0.000000 
							}
						}
					}
				}
			}
		}
	}
}
MOTION
Frames: 18
Frame Time: 0.041667
51.490934 17.089626 -8.369917 -14.176719 -83.836000 17.724303 -20.328206 4.239553 -26.021701 4.554406 14.687386 43.017645 1.129880 -6.585142 -5.754568 0.575200 -4.857000 -13.501000 29.242593 4.041944 -15.299312 -3.927007 -12.548426 36.800335 -2.778360 7.070040 -26.275609 -3.271800 -11.122600 32.694500 0.723442 -2.468648 -0.759865 0.580221 -1.582386 3.926764 6.245054 -15.067489 1.710559 4.433900 -7.192100 -0.448600 -74.745721 -8.586375 34.764799 11.368474 -19.303356 -3.064044 -1.993040 -1.110676 -11.189722 -7.125000 0.000000 0.000000 69.747932 -6.596810 35.198779 -15.650396 27.145406 -4.510406 0.647676 -0.388098 -7.714411 7.125000 0.000000 0.000000 
51.479379 17.091084 -8.376163 -14.448996 -83.850058 17.898582 -20.164094 4.037320 -26.359953 4.710933 14.845212 43.565984 1.078504 -5.900778 -6.300435 0.720500 -5.424200 -15.122500 29.319417 4.040363 -15.077659 -3.905449 -12.508979 36.693614 -2.783910 7.136494 -26.262039 -0.903600 -6.057900 16.952400 0.741440 -2.454912 -0.756377 0.623801 -1.572699 3.911718 6.242960 -15.109724 1.659447 4.428400 -7.209800 -0.493500 -74.872019 -8.278431 34.372098 11.043238 -18.975401 -2.977797 -2.034685 -1.076635 -10.998538 -7.125000 0.000000 0.000000 69.767687 -6.537972 34.939063 -15.281781 26.735055 -4.354513 0.645925 -0.388929 -7.354021 7.125000 0.000000 0.000000 
51.464700 17.092333 -8.379807 -14.632455 -83.849820 18.007593 -20.005635 3.761588 -26.567797 4.772362 14.910053 43.767570 0.999017 -5.030797 -6.755359 0.857500 -5.905200 -16.509700 29.375204 3.957198 -14.863833 -3.871115 -12.453013 36.529060 -2.782374 7.338347 -26.120667 -0.525800 -4.646800 12.903900 0.757727 -2.434810 -0.746383 0.657832 -1.560061 3.962912 6.273000 -15.171105 1.558493 4.440200 -7.231500 -0.554700 -74.990342 -7.964833 33.988423 10.744279 -18.684602 -2.912448 -2.091025 -1.044727 -10.745663 -7.125000 0.000000 0.000000 69.795139 -6.436585 34.606825 -14.902171 26.312549 -4.198734 0.643784 -0.390956 -6.999650 7.125000 0.000000 0.000000 
51.444712 17.101078 -8.379182 -14.476274 -83.918904 17.786352 -19.903702 3.512155 -26.747688 4.803749 14.944002 43.857330 0.920586 -4.151243 -7.336168 0.995400 -6.349600 -17.802100 29.343618 3.864440 -14.633331 -3.835573 -12.390242 36.350495 -2.783875 7.555747 -25.991053 -0.779000 -5.635100 15.729400 0.769925 -2.435836 -0.754727 0.692614 -1.554533 3.922924 6.264289 -15.189650 1.508143 4.440100 -7.237200 -0.603700 -75.172530 -7.532067 33.558862 10.482487 -18.436529 -2.860319 -2.135066 -1.048423 -11.401919 -7.125000 0.000000 0.000000 69.796270 -6.465835 34.379942 -14.599452 25.976486 -4.076646 0.645122 -0.391447 -6.757369 7.125000 0.000000 0.000000 
51.425973 17.107532 -8.379703 -14.348411 -83.972868 17.590352 -19.789218 3.267476 -26.869432 4.797281 14.941045 43.812167 0.817193 -3.200287 -7.725561 1.176300 -6.883700 -19.371400 29.330007 3.786385 -14.388801 -3.796496 -12.323693 36.157053 -2.786280 7.792313 -25.857967 -0.649100 -5.153600 14.347100 0.780306 -2.421191 -0.758138 0.718505 -1.542674 3.910483 6.261849 -15.221076 1.465166 4.435600 -7.249900 -0.640200 -75.309041 -7.172176 33.025373 10.187484 -18.137468 -2.789360 -2.166749 -1.041382 -11.486658 -7.125000 0.000000 0.000000 69.824091 -6.448876 34.085482 -14.279048 25.616490 -3.949730 0.645262 -0.393700 -6.472564 7.125000 0.000000 0.000000 
51.405360 17.115652 -8.378974 -14.078045 -84.046791 17.260166 -19.691922 3.018798 -26.918725 4.738079 14.886435 43.575210 0.702557 -2.232304 -8.054791 1.362700 -7.388800 -20.872300 29.288254 3.706836 -14.129109 -3.752250 -12.248469 35.936932 -2.787963 8.028301 -25.720862 -0.669000 -5.230600 14.567500 0.786275 -2.399088 -0.764392 0.733983 -1.526795 3.895053 6.257641 -15.248323 1.439477 4.427800 -7.262000 -0.662100 -75.430279 -6.817952 32.447149 9.892251 -17.830925 -2.714904 -2.189265 -1.041057 -11.560181 -7.125000 0.000000 0.000000 69.865956 -6.443992 33.774192 -13.978120 25.276891 -3.833133 0.645801 -0.396810 -6.212283 7.125000 0.000000 0.000000 
51.383082 17.124918 -8.377100 -13.687821 -84.143121 16.817257 -19.608465 2.760950 -26.921008 4.645784 14.799517 43.218736 0.592371 -1.344826 -8.355614 1.518400 -7.781200 -22.051500 29.223203 3.639312 -13.862919 -3.708674 -12.172723 35.716763 -2.790817 8.236243 -25.608552 -0.709100 -5.381800 15.000800 0.788106 -2.369754 -0.772489 0.741690 -1.507242 3.878475 6.256683 -15.268661 1.428141 4.421300 -7.271800 -0.671600 -75.530826 -6.472253 31.864583 9.599095 -17.520234 -2.637106 -2.202822 -1.047082 -11.652047 -7.125000 0.000000 0.000000 69.917829 -6.449975 33.459173 -13.700625 24.962688 -3.727782 0.646778 -0.400493 -5.979451 7.125000 0.000000 0.000000 
51.359138 17.134808 -8.373977 -13.175907 -84.263929 16.262096 -19.539896 2.497834 -26.865934 4.512770 14.672408 42.714826 0.497635 -0.600862 -8.626606 1.608900 -7.998900 -22.710800 29.134606 3.582166 -13.592690 -3.664581 -12.094844 35.491724 -2.792615 8.389236 -25.519976 -0.729800 -5.458100 15.219900 0.785505 -2.331464 -0.781050 0.740829 -1.483423 3.870050 6.261715 -15.281182 1.429146 4.417500 -7.278400 -0.667900 -75.601907 -6.142132 31.318633 9.312758 -17.211902 -2.558000 -2.208436 -1.061038 -11.757893 -7.125000 0.000000 0.000000 69.977969 -6.460949 33.144000 -13.447394 24.675818 -3.633678 0.648088 -0.404509 -5.775767 7.125000 0.000000 0.000000 
51.333736 17.144906 -8.369813 -12.578552 -84.409114 15.629931 -19.482242 2.232669 -26.762453 4.346313 14.510715 42.088043 0.429228 -0.050262 -8.884099 1.612700 -8.007900 -22.738000 29.026861 3.534147 -13.325163 -3.621454 -12.017382 35.269324 -2.792635 8.493788 -25.446226 -0.733700 -5.472400 15.260900 0.779546 -2.287519 -0.789651 0.733488 -1.456878 3.870686 6.272465 -15.285375 1.432028 4.416900 -7.280800 -0.658400 -75.646661 -5.813275 30.891667 9.049297 -16.929105 -2.484869 -2.210472 -1.082329 -12.030609 -7.125000 0.000000 0.000000 70.037832 -6.480128 32.850769 -13.223507 24.422806 -3.552142 0.649653 -0.408640 -5.606053 7.125000 0.000000 0.000000 
51.306981 17.154692 -8.364504 -11.903331 -84.576093 14.926938 -19.433103 1.964668 -26.616765 4.154225 14.320408 41.364023 0.388913 0.309220 -9.129849 1.543700 -7.842700 -22.237500 28.901598 3.487847 -13.066972 -3.580579 -11.942557 35.056314 -2.789486 8.567192 -25.367735 -0.727400 -5.449500 15.195300 0.770893 -2.239818 -0.797339 0.718782 -1.428630 3.881443 6.283946 -15.281959 1.429796 4.416700 -7.278800 -0.651500 -75.663696 -5.483692 30.600408 8.822779 -16.689499 -2.421181 -2.206809 -1.115782 -12.459550 -7.125000 0.000000 0.000000 70.093315 -6.508876 32.589898 -13.031607 24.207447 -3.483695 0.651356 -0.412707 -5.471727 7.125000 0.000000 0.000000 
51.279081 17.163749 -8.358049 -11.193161 -84.761480 14.193668 -19.386565 1.694006 -26.434025 3.944473 14.107290 40.568311 0.369055 0.527639 -9.349023 1.441200 -7.589700 -21.474600 28.763253 3.435889 -12.824382 -3.542571 -11.872518 34.857442 -2.781463 8.662506 -25.245531 -0.729300 -5.456500 15.215400 0.760629 -2.189518 -0.804207 0.700353 -1.399067 3.899365 6.297529 -15.272425 1.423315 4.419200 -7.273300 -0.647100 -75.659384 -5.144980 30.446565 8.646952 -16.510567 -2.371183 -2.197293 -1.160348 -13.043162 -7.125000 0.000000 0.000000 70.139020 -6.550018 32.369019 -12.873137 24.031742 -3.428372 0.652937 -0.416383 -5.370623 7.125000 0.000000 0.000000 
51.250140 17.171973 -8.350450 -10.481891 -84.961325 13.460145 -19.337623 1.422058 -26.217947 3.724685 13.876895 39.724641 0.360413 0.658521 -9.522900 1.336400 -7.319900 -20.666700 28.617312 3.378563 -12.598204 -3.507968 -11.808156 34.676297 -2.766268 8.776360 -25.064928 -0.743800 -5.509200 15.366900 0.749283 -2.135898 -0.811046 0.675454 -1.367751 3.917058 6.305541 -15.264458 1.407351 4.417600 -7.267900 -0.649900 -75.638311 -4.788127 30.437122 8.540794 -16.415244 -2.339375 -2.180651 -1.212818 -13.766945 -7.125000 0.000000 0.000000 70.176199 -6.606285 32.189390 -12.748625 23.896071 -3.385964 0.654368 -0.419598 -5.300532 7.125000 0.000000 0.000000 
51.220366 17.179260 -8.341809 -9.807684 -85.173927 12.762856 -19.281294 1.150956 -25.971796 3.502033 13.634180 38.854400 0.340207 0.819474 -9.590307 1.289900 -7.196300 -20.298200 28.468588 3.313536 -12.389264 -3.477013 -11.750135 34.514922 -2.742245 8.883341 -24.828154 -0.763900 -5.581500 15.574700 0.737605 -2.079017 -0.817193 0.649001 -1.334497 3.932912 6.313787 -15.256875 1.383026 4.418000 -7.262000 -0.660600 -75.608164 -4.410442 30.543469 8.511747 -16.410813 -2.325383 -2.155177 -1.262879 -14.570233 -7.125000 0.000000 0.000000 70.202056 -6.675094 32.054879 -12.656988 23.799256 -3.355563 0.655755 -0.421980 -5.258843 7.125000 0.000000 0.000000 
51.189863 17.185299 -8.332023 -9.182481 -85.396254 12.111749 -19.217113 0.888117 -25.700529 3.282033 13.384945 37.978618 0.312539 0.992489 -9.573352 1.281100 -7.172800 -20.228400 28.319770 3.242133 -12.195314 -3.450229 -11.697932 34.374240 -2.710211 8.901891 -24.581470 -0.762200 -5.575200 15.556700 0.726059 -2.020725 -0.823411 0.622029 -1.300398 3.944222 6.321026 -15.250828 1.351976 4.419200 -7.256300 -0.676300 -75.576638 -4.008739 30.735069 8.573493 -16.513162 -2.333190 -2.121301 -1.307173 -15.388010 -7.125000 0.000000 0.000000 70.213703 -6.757678 31.971532 -12.598202 23.740998 -3.336773 0.656750 -0.423140 -5.244757 7.125000 0.000000 0.000000 
51.158736 17.190087 -8.321404 -8.662461 -85.622104 11.559592 -19.140605 0.633402 -25.404730 3.069569 13.134611 37.117069 0.285749 1.134817 -9.489523 1.285300 -7.184000 -20.261800 28.178470 3.163835 -12.009376 -3.427498 -11.651491 34.253057 -2.673769 8.847772 -24.341417 -0.739500 -5.493600 15.322000 0.715931 -1.966493 -0.828802 0.598542 -1.268399 3.953736 6.330278 -15.242520 1.312702 4.423900 -7.248800 -0.697700 -75.551878 -3.585419 30.980360 8.738592 -16.736664 -2.368246 -2.080739 -1.345003 -16.162224 -7.125000 0.000000 0.000000 70.203768 -6.847221 31.952323 -12.571687 23.720564 -3.328971 0.657444 -0.422697 -5.256052 7.125000 0.000000 0.000000 
51.126464 17.193627 -8.310057 -8.211231 -85.837607 11.067546 -19.053937 0.384271 -25.084622 2.868306 12.888104 36.285278 0.260524 1.247990 -9.352684 1.298600 -7.219600 -20.367600 28.046670 3.074850 -11.820416 -3.408710 -11.609377 34.148586 -2.638258 8.733328 -24.138824 -0.695900 -5.332500 14.859400 0.708076 -1.924231 -0.832901 0.583591 -1.242646 3.964935 6.344537 -15.228659 1.265629 4.434800 -7.237500 -0.724600 -75.535855 -3.140389 31.273988 9.015255 -17.092138 -2.435633 -2.035502 -1.376367 -16.869058 -7.125000 0.000000 0.000000 70.169842 -6.940606 32.000882 -12.574869 23.735065 -3.331068 0.657769 -0.420493 -5.294137 7.125000 0.000000 0.000000 
51.093462 17.196125 -8.298085 -7.872667 -86.044247 10.682165 -18.957487 0.144415 -24.746796 2.681076 12.649943 35.496879 0.236682 1.334546 -9.162459 1.316100 -7.266300 -20.506700 27.925917 2.975381 -11.628311 -3.392474 -11.570852 34.055774 -2.606599 8.619115 -23.964017 -0.646400 -5.143400 14.317900 0.702324 -1.893027 -0.835410 0.572400 -1.222781 3.983602 6.355790 -15.211889 1.212873 4.443700 -7.224200 -0.755900 -75.525515 -2.683023 31.624291 9.408447 -17.585625 -2.541184 -1.988659 -1.404813 -17.512649 -7.125000 0.000000 0.000000 70.113134 -7.029551 32.113699 -12.605277 23.781212 -3.342037 0.657431 -0.416980 -5.352988 7.125000 0.000000 0.000000 
51.059628 17.197479 -8.285488 -7.697311 -86.233978 10.452066 -18.849442 -0.085823 -24.393574 2.509696 12.423307 34.761079 0.211256 1.409610 -8.907329 1.334700 -7.315500 -20.653600 27.821531 2.862324 -11.427804 -3.377632 -11.534789 33.969750 -2.581593 8.558847 -23.806167 -0.607700 -4.989700 13.879200 0.699080 -1.873624 -0.836194 0.560451 -1.209251 4.009634 6.357347 -15.196584 1.150859 4.442900 -7.211300 -0.797100 -75.514049 -2.220876 32.060081 9.922386 -18.223097 -2.692567 -1.943284 -1.437340 -18.124763 -7.125000 0.000000 0.000000 70.038941 -7.112165 32.279325 -12.658812 23.853777 -3.360673 0.656670 -0.412654 -5.429201 7.125000 0.000000 0.000000 
